<svg width="30" height="26" viewBox="0 0 30 26" fill="none" xmlns="http://www.w3.org/2000/svg">
<g filter="url(#filter0_d_391:3186)">
<path fill-rule="evenodd" clip-rule="evenodd" d="M4 4.375C4 3.61561 4.61561 3 5.375 3H24.625C25.3844 3 26 3.61561 26 4.375C26 5.13439 25.3844 5.75 24.625 5.75H5.375C4.61561 5.75 4 5.13439 4 4.375ZM4 12C4 11.2406 4.61561 10.625 5.375 10.625H24.625C25.3844 10.625 26 11.2406 26 12C26 12.7594 25.3844 13.375 24.625 13.375H5.375C4.61561 13.375 4 12.7594 4 12ZM5.375 18.25C4.61561 18.25 4 18.8656 4 19.625C4 20.3844 4.61561 21 5.375 21H24.625C25.3844 21 26 20.3844 26 19.625C26 18.8656 25.3844 18.25 24.625 18.25H5.375Z" fill="url(#paint0_angular_391:3186)"/>
</g>
<defs>
<filter id="filter0_d_391:3186" x="0" y="0" width="30" height="26" filterUnits="userSpaceOnUse" color-interpolation-filters="sRGB">
<feFlood flood-opacity="0" result="BackgroundImageFix"/>
<feColorMatrix in="SourceAlpha" type="matrix" values="0 0 0 0 0 0 0 0 0 0 0 0 0 0 0 0 0 0 127 0" result="hardAlpha"/>
<feOffset dy="1"/>
<feGaussianBlur stdDeviation="2"/>
<feComposite in2="hardAlpha" operator="out"/>
<feColorMatrix type="matrix" values="0 0 0 0 0.670588 0 0 0 0 0.670588 0 0 0 0 0.670588 0 0 0 0.8 0"/>
<feBlend mode="normal" in2="BackgroundImageFix" result="effect1_dropShadow_391:3186"/>
<feBlend mode="normal" in="SourceGraphic" in2="effect1_dropShadow_391:3186" result="shape"/>
</filter>
<radialGradient id="paint0_angular_391:3186" cx="0" cy="0" r="1" gradientUnits="userSpaceOnUse" gradientTransform="translate(15 5.68323) rotate(131.792) scale(12.7462 12.8505)">
<stop offset="0.0370671" stop-color="#77A9E2"/>
<stop offset="0.570373" stop-color="#50BFE4"/>
<stop offset="0.884598" stop-color="#9797E0"/>
</radialGradient>
</defs>
</svg>
